<mxfile host="app.diagrams.net" modified="2024-03-11T12:14:48.671Z" agent="Mozilla/5.0 (Windows NT 10.0; Win64; x64) AppleWebKit/537.36 (KHTML, like Gecko) Chrome/121.0.0.0 Safari/537.36 Edg/121.0.0.0" etag="tD5oPgPaUec4Vol_NUUH" version="24.0.4" type="onedrive">
  <diagram name="Page-1" id="oSdGBV-rLJvJsS43tvfX">
    <mxGraphModel grid="0" page="0" gridSize="10" guides="1" tooltips="1" connect="1" arrows="1" fold="1" pageScale="1" pageWidth="827" pageHeight="1169" math="0" shadow="0">
      <root>
        <mxCell id="0" />
        <mxCell id="1" parent="0" />
        <mxCell id="lurDzq3rtO2G6Uc5bRRA-3" value="" style="edgeStyle=none;curved=1;rounded=0;orthogonalLoop=1;jettySize=auto;html=1;fontSize=12;startSize=8;endSize=8;" edge="1" parent="1" source="lurDzq3rtO2G6Uc5bRRA-1" target="lurDzq3rtO2G6Uc5bRRA-2">
          <mxGeometry relative="1" as="geometry" />
        </mxCell>
        <mxCell id="lurDzq3rtO2G6Uc5bRRA-1" value="Start" style="strokeWidth=2;html=1;shape=mxgraph.flowchart.terminator;whiteSpace=wrap;" vertex="1" parent="1">
          <mxGeometry x="131" y="-279" width="100" height="60" as="geometry" />
        </mxCell>
        <mxCell id="lurDzq3rtO2G6Uc5bRRA-5" value="" style="edgeStyle=none;curved=1;rounded=0;orthogonalLoop=1;jettySize=auto;html=1;fontSize=12;startSize=8;endSize=8;" edge="1" parent="1" source="lurDzq3rtO2G6Uc5bRRA-2" target="lurDzq3rtO2G6Uc5bRRA-4">
          <mxGeometry relative="1" as="geometry" />
        </mxCell>
        <mxCell id="lurDzq3rtO2G6Uc5bRRA-2" value="input login details" style="shape=parallelogram;perimeter=parallelogramPerimeter;whiteSpace=wrap;html=1;fixedSize=1;strokeWidth=2;" vertex="1" parent="1">
          <mxGeometry x="121" y="-190" width="120" height="60" as="geometry" />
        </mxCell>
        <mxCell id="lurDzq3rtO2G6Uc5bRRA-8" value="Yes" style="edgeStyle=none;curved=1;rounded=0;orthogonalLoop=1;jettySize=auto;html=1;fontSize=12;startSize=8;endSize=8;entryX=0.5;entryY=0;entryDx=0;entryDy=0;exitX=0.5;exitY=1;exitDx=0;exitDy=0;exitPerimeter=0;" edge="1" parent="1" source="lurDzq3rtO2G6Uc5bRRA-4" target="lurDzq3rtO2G6Uc5bRRA-14">
          <mxGeometry x="-0.3803" relative="1" as="geometry">
            <mxPoint x="181" y="28" as="targetPoint" />
            <mxPoint y="1" as="offset" />
          </mxGeometry>
        </mxCell>
        <mxCell id="lurDzq3rtO2G6Uc5bRRA-4" value="Valid login?" style="strokeWidth=2;html=1;shape=mxgraph.flowchart.decision;whiteSpace=wrap;" vertex="1" parent="1">
          <mxGeometry x="131" y="-101" width="100" height="100" as="geometry" />
        </mxCell>
        <mxCell id="lurDzq3rtO2G6Uc5bRRA-6" value="No" style="endArrow=classic;html=1;rounded=0;fontSize=12;startSize=8;endSize=8;entryX=0;entryY=0.5;entryDx=0;entryDy=0;exitX=0;exitY=0.5;exitDx=0;exitDy=0;exitPerimeter=0;" edge="1" parent="1" source="lurDzq3rtO2G6Uc5bRRA-4" target="lurDzq3rtO2G6Uc5bRRA-2">
          <mxGeometry x="-0.7961" width="50" height="50" relative="1" as="geometry">
            <mxPoint x="189" y="115" as="sourcePoint" />
            <mxPoint x="239" y="65" as="targetPoint" />
            <Array as="points">
              <mxPoint x="58" y="-51" />
              <mxPoint x="58" y="-160" />
            </Array>
            <mxPoint as="offset" />
          </mxGeometry>
        </mxCell>
        <mxCell id="lurDzq3rtO2G6Uc5bRRA-14" value="input option" style="shape=parallelogram;perimeter=parallelogramPerimeter;whiteSpace=wrap;html=1;fixedSize=1;" vertex="1" parent="1">
          <mxGeometry x="121" y="70" width="120" height="60" as="geometry" />
        </mxCell>
        <mxCell id="GNyw5JDD-zAtvYl24aWg-18" value="yes" style="edgeStyle=none;curved=1;rounded=0;orthogonalLoop=1;jettySize=auto;html=1;fontSize=12;startSize=8;endSize=8;" edge="1" parent="1" source="GNyw5JDD-zAtvYl24aWg-5" target="GNyw5JDD-zAtvYl24aWg-17">
          <mxGeometry x="-0.3968" relative="1" as="geometry">
            <mxPoint as="offset" />
          </mxGeometry>
        </mxCell>
        <mxCell id="GNyw5JDD-zAtvYl24aWg-5" value="option=rooms?" style="strokeWidth=2;html=1;shape=mxgraph.flowchart.decision;whiteSpace=wrap;" vertex="1" parent="1">
          <mxGeometry x="-261" y="201" width="100" height="100" as="geometry" />
        </mxCell>
        <mxCell id="mPRCxrv7k-D8UaFmPZDw-27" value="" style="edgeStyle=none;curved=1;rounded=0;orthogonalLoop=1;jettySize=auto;html=1;fontSize=12;startSize=8;endSize=8;" edge="1" parent="1" source="GNyw5JDD-zAtvYl24aWg-6" target="mPRCxrv7k-D8UaFmPZDw-22">
          <mxGeometry relative="1" as="geometry" />
        </mxCell>
        <mxCell id="GNyw5JDD-zAtvYl24aWg-6" value="option=guests?" style="strokeWidth=2;html=1;shape=mxgraph.flowchart.decision;whiteSpace=wrap;" vertex="1" parent="1">
          <mxGeometry x="-25" y="201" width="100" height="100" as="geometry" />
        </mxCell>
        <mxCell id="GNyw5JDD-zAtvYl24aWg-9" value="yes" style="edgeStyle=none;curved=1;rounded=0;orthogonalLoop=1;jettySize=auto;html=1;fontSize=12;startSize=8;endSize=8;" edge="1" parent="1" source="GNyw5JDD-zAtvYl24aWg-7" target="GNyw5JDD-zAtvYl24aWg-8">
          <mxGeometry x="-0.5122" relative="1" as="geometry">
            <mxPoint as="offset" />
          </mxGeometry>
        </mxCell>
        <mxCell id="GNyw5JDD-zAtvYl24aWg-7" value="option=logout?" style="strokeWidth=2;html=1;shape=mxgraph.flowchart.decision;whiteSpace=wrap;" vertex="1" parent="1">
          <mxGeometry x="131" y="201" width="100" height="100" as="geometry" />
        </mxCell>
        <mxCell id="GNyw5JDD-zAtvYl24aWg-8" value="End&amp;nbsp;" style="strokeWidth=2;html=1;shape=mxgraph.flowchart.terminator;whiteSpace=wrap;" vertex="1" parent="1">
          <mxGeometry x="131" y="342" width="100" height="60" as="geometry" />
        </mxCell>
        <mxCell id="GNyw5JDD-zAtvYl24aWg-10" value="no" style="endArrow=classic;html=1;rounded=0;fontSize=12;startSize=8;endSize=8;exitX=0;exitY=0.5;exitDx=0;exitDy=0;entryX=1;entryY=0.5;entryDx=0;entryDy=0;entryPerimeter=0;exitPerimeter=0;" edge="1" parent="1" source="GNyw5JDD-zAtvYl24aWg-7" target="GNyw5JDD-zAtvYl24aWg-6">
          <mxGeometry x="-0.5357" width="50" height="50" relative="1" as="geometry">
            <mxPoint x="44" y="135" as="sourcePoint" />
            <mxPoint x="94" y="85" as="targetPoint" />
            <mxPoint as="offset" />
          </mxGeometry>
        </mxCell>
        <mxCell id="GNyw5JDD-zAtvYl24aWg-11" value="" style="endArrow=classic;html=1;rounded=0;fontSize=12;startSize=8;endSize=8;entryX=0.5;entryY=0;entryDx=0;entryDy=0;entryPerimeter=0;exitX=0.5;exitY=1;exitDx=0;exitDy=0;" edge="1" parent="1" source="lurDzq3rtO2G6Uc5bRRA-14" target="GNyw5JDD-zAtvYl24aWg-7">
          <mxGeometry width="50" height="50" relative="1" as="geometry">
            <mxPoint x="170" y="135" as="sourcePoint" />
            <mxPoint x="220" y="85" as="targetPoint" />
            <Array as="points" />
          </mxGeometry>
        </mxCell>
        <mxCell id="GNyw5JDD-zAtvYl24aWg-25" value="Yes" style="edgeStyle=none;curved=1;rounded=0;orthogonalLoop=1;jettySize=auto;html=1;fontSize=12;startSize=8;endSize=8;" edge="1" parent="1" source="GNyw5JDD-zAtvYl24aWg-14" target="GNyw5JDD-zAtvYl24aWg-24">
          <mxGeometry relative="1" as="geometry" />
        </mxCell>
        <mxCell id="GNyw5JDD-zAtvYl24aWg-14" value="option=&lt;br&gt;check available&lt;br&gt;rooms" style="strokeWidth=2;html=1;shape=mxgraph.flowchart.decision;whiteSpace=wrap;" vertex="1" parent="1">
          <mxGeometry x="-261" y="487" width="100" height="100" as="geometry" />
        </mxCell>
        <mxCell id="GNyw5JDD-zAtvYl24aWg-19" value="" style="edgeStyle=none;curved=1;rounded=0;orthogonalLoop=1;jettySize=auto;html=1;fontSize=12;startSize=8;endSize=8;" edge="1" parent="1" source="GNyw5JDD-zAtvYl24aWg-17" target="GNyw5JDD-zAtvYl24aWg-14">
          <mxGeometry relative="1" as="geometry" />
        </mxCell>
        <mxCell id="GNyw5JDD-zAtvYl24aWg-17" value="input option" style="shape=parallelogram;perimeter=parallelogramPerimeter;whiteSpace=wrap;html=1;fixedSize=1;" vertex="1" parent="1">
          <mxGeometry x="-271" y="364" width="120" height="60" as="geometry" />
        </mxCell>
        <mxCell id="GNyw5JDD-zAtvYl24aWg-20" value="no" style="endArrow=classic;html=1;rounded=0;fontSize=12;startSize=8;endSize=8;exitX=0;exitY=0.5;exitDx=0;exitDy=0;exitPerimeter=0;entryX=1;entryY=0.5;entryDx=0;entryDy=0;entryPerimeter=0;" edge="1" parent="1" source="GNyw5JDD-zAtvYl24aWg-6" target="GNyw5JDD-zAtvYl24aWg-5">
          <mxGeometry x="-0.6029" width="50" height="50" relative="1" as="geometry">
            <mxPoint x="128" y="163" as="sourcePoint" />
            <mxPoint x="178" y="113" as="targetPoint" />
            <mxPoint as="offset" />
          </mxGeometry>
        </mxCell>
        <mxCell id="GNyw5JDD-zAtvYl24aWg-22" value="No" style="endArrow=classic;html=1;rounded=0;fontSize=12;startSize=8;endSize=8;exitX=0;exitY=0.5;exitDx=0;exitDy=0;exitPerimeter=0;entryX=1;entryY=0.5;entryDx=0;entryDy=0;entryPerimeter=0;" edge="1" parent="1" source="GNyw5JDD-zAtvYl24aWg-14" target="GNyw5JDD-zAtvYl24aWg-23">
          <mxGeometry width="50" height="50" relative="1" as="geometry">
            <mxPoint x="-218" y="540" as="sourcePoint" />
            <mxPoint x="-385" y="523" as="targetPoint" />
          </mxGeometry>
        </mxCell>
        <mxCell id="GNyw5JDD-zAtvYl24aWg-28" value="Yes" style="edgeStyle=none;curved=1;rounded=0;orthogonalLoop=1;jettySize=auto;html=1;fontSize=12;startSize=8;endSize=8;" edge="1" parent="1" source="GNyw5JDD-zAtvYl24aWg-23" target="GNyw5JDD-zAtvYl24aWg-27">
          <mxGeometry relative="1" as="geometry" />
        </mxCell>
        <mxCell id="GNyw5JDD-zAtvYl24aWg-23" value="option=&lt;br&gt;book room" style="strokeWidth=2;html=1;shape=mxgraph.flowchart.decision;whiteSpace=wrap;" vertex="1" parent="1">
          <mxGeometry x="-420" y="487" width="100" height="100" as="geometry" />
        </mxCell>
        <mxCell id="GNyw5JDD-zAtvYl24aWg-24" value="open csv, print all empty rooms" style="rounded=0;whiteSpace=wrap;html=1;" vertex="1" parent="1">
          <mxGeometry x="-271" y="631" width="120" height="60" as="geometry" />
        </mxCell>
        <mxCell id="GNyw5JDD-zAtvYl24aWg-35" value="" style="edgeStyle=none;curved=1;rounded=0;orthogonalLoop=1;jettySize=auto;html=1;fontSize=12;startSize=8;endSize=8;" edge="1" parent="1" source="GNyw5JDD-zAtvYl24aWg-27" target="GNyw5JDD-zAtvYl24aWg-30">
          <mxGeometry relative="1" as="geometry" />
        </mxCell>
        <mxCell id="GNyw5JDD-zAtvYl24aWg-27" value="empty=open csv, store all empty rooms" style="rounded=0;whiteSpace=wrap;html=1;" vertex="1" parent="1">
          <mxGeometry x="-430" y="631" width="120" height="60" as="geometry" />
        </mxCell>
        <mxCell id="GNyw5JDD-zAtvYl24aWg-37" value="" style="edgeStyle=none;curved=1;rounded=0;orthogonalLoop=1;jettySize=auto;html=1;fontSize=12;startSize=8;endSize=8;" edge="1" parent="1" source="GNyw5JDD-zAtvYl24aWg-29" target="GNyw5JDD-zAtvYl24aWg-34">
          <mxGeometry relative="1" as="geometry" />
        </mxCell>
        <mxCell id="GNyw5JDD-zAtvYl24aWg-29" value="input&lt;br&gt;bookedRoom" style="shape=parallelogram;perimeter=parallelogramPerimeter;whiteSpace=wrap;html=1;fixedSize=1;" vertex="1" parent="1">
          <mxGeometry x="-430" y="812" width="120" height="60" as="geometry" />
        </mxCell>
        <mxCell id="GNyw5JDD-zAtvYl24aWg-36" value="" style="edgeStyle=none;curved=1;rounded=0;orthogonalLoop=1;jettySize=auto;html=1;fontSize=12;startSize=8;endSize=8;entryX=0.5;entryY=0;entryDx=0;entryDy=0;" edge="1" parent="1" source="GNyw5JDD-zAtvYl24aWg-30" target="GNyw5JDD-zAtvYl24aWg-29">
          <mxGeometry relative="1" as="geometry">
            <mxPoint x="-460" y="821" as="targetPoint" />
          </mxGeometry>
        </mxCell>
        <mxCell id="GNyw5JDD-zAtvYl24aWg-30" value="print empty" style="rounded=0;whiteSpace=wrap;html=1;" vertex="1" parent="1">
          <mxGeometry x="-430" y="722" width="120" height="60" as="geometry" />
        </mxCell>
        <mxCell id="GNyw5JDD-zAtvYl24aWg-41" value="" style="edgeStyle=none;curved=1;rounded=0;orthogonalLoop=1;jettySize=auto;html=1;fontSize=12;startSize=8;endSize=8;" edge="1" parent="1" source="GNyw5JDD-zAtvYl24aWg-34" target="GNyw5JDD-zAtvYl24aWg-39">
          <mxGeometry relative="1" as="geometry" />
        </mxCell>
        <mxCell id="GNyw5JDD-zAtvYl24aWg-34" value="is &lt;br&gt;bookedRoom in empty?" style="strokeWidth=2;html=1;shape=mxgraph.flowchart.decision;whiteSpace=wrap;" vertex="1" parent="1">
          <mxGeometry x="-420" y="910" width="100" height="100" as="geometry" />
        </mxCell>
        <mxCell id="GNyw5JDD-zAtvYl24aWg-38" value="No" style="endArrow=classic;html=1;rounded=0;fontSize=12;startSize=8;endSize=8;entryX=0.5;entryY=0;entryDx=0;entryDy=0;exitX=0;exitY=0.5;exitDx=0;exitDy=0;exitPerimeter=0;" edge="1" parent="1" source="GNyw5JDD-zAtvYl24aWg-34" target="GNyw5JDD-zAtvYl24aWg-29">
          <mxGeometry x="-0.8422" width="50" height="50" relative="1" as="geometry">
            <mxPoint x="-368" y="936" as="sourcePoint" />
            <mxPoint x="-318" y="886" as="targetPoint" />
            <Array as="points">
              <mxPoint x="-499" y="960" />
              <mxPoint x="-501" y="795" />
              <mxPoint x="-370" y="794" />
            </Array>
            <mxPoint as="offset" />
          </mxGeometry>
        </mxCell>
        <mxCell id="GNyw5JDD-zAtvYl24aWg-47" value="" style="edgeStyle=none;curved=1;rounded=0;orthogonalLoop=1;jettySize=auto;html=1;fontSize=12;startSize=8;endSize=8;" edge="1" parent="1" source="GNyw5JDD-zAtvYl24aWg-39" target="GNyw5JDD-zAtvYl24aWg-46">
          <mxGeometry relative="1" as="geometry" />
        </mxCell>
        <mxCell id="GNyw5JDD-zAtvYl24aWg-39" value="input guestDetails" style="shape=parallelogram;perimeter=parallelogramPerimeter;whiteSpace=wrap;html=1;fixedSize=1;" vertex="1" parent="1">
          <mxGeometry x="-430" y="1044" width="120" height="60" as="geometry" />
        </mxCell>
        <mxCell id="GNyw5JDD-zAtvYl24aWg-46" value="store details in csv for booked room" style="rounded=0;whiteSpace=wrap;html=1;" vertex="1" parent="1">
          <mxGeometry x="-430" y="1138" width="120" height="60" as="geometry" />
        </mxCell>
        <mxCell id="GNyw5JDD-zAtvYl24aWg-48" value="" style="endArrow=classic;html=1;rounded=0;fontSize=12;startSize=8;endSize=8;exitX=0.5;exitY=1;exitDx=0;exitDy=0;entryX=0.5;entryY=0;entryDx=0;entryDy=0;" edge="1" parent="1" source="GNyw5JDD-zAtvYl24aWg-46" target="GNyw5JDD-zAtvYl24aWg-17">
          <mxGeometry width="50" height="50" relative="1" as="geometry">
            <mxPoint x="-349" y="960" as="sourcePoint" />
            <mxPoint x="-299" y="910" as="targetPoint" />
            <Array as="points">
              <mxPoint x="-370" y="1252" />
              <mxPoint x="-657" y="1252" />
              <mxPoint x="-657" y="344" />
              <mxPoint x="-211" y="344" />
            </Array>
          </mxGeometry>
        </mxCell>
        <mxCell id="GNyw5JDD-zAtvYl24aWg-51" value="" style="endArrow=none;html=1;rounded=0;fontSize=12;startSize=8;endSize=8;entryX=0.5;entryY=1;entryDx=0;entryDy=0;" edge="1" parent="1" target="GNyw5JDD-zAtvYl24aWg-24">
          <mxGeometry width="50" height="50" relative="1" as="geometry">
            <mxPoint x="-370" y="1252" as="sourcePoint" />
            <mxPoint x="-150" y="860" as="targetPoint" />
            <Array as="points">
              <mxPoint x="-214" y="1252" />
            </Array>
          </mxGeometry>
        </mxCell>
        <mxCell id="mPRCxrv7k-D8UaFmPZDw-6" value="option=&lt;br&gt;back" style="strokeWidth=2;html=1;shape=mxgraph.flowchart.decision;whiteSpace=wrap;" vertex="1" parent="1">
          <mxGeometry x="-573" y="487" width="100" height="100" as="geometry" />
        </mxCell>
        <mxCell id="mPRCxrv7k-D8UaFmPZDw-7" value="No" style="endArrow=classic;html=1;rounded=0;fontSize=12;startSize=8;endSize=8;exitX=0;exitY=0.5;exitDx=0;exitDy=0;exitPerimeter=0;entryX=1;entryY=0.5;entryDx=0;entryDy=0;entryPerimeter=0;" edge="1" parent="1" source="GNyw5JDD-zAtvYl24aWg-23" target="mPRCxrv7k-D8UaFmPZDw-6">
          <mxGeometry width="50" height="50" relative="1" as="geometry">
            <mxPoint x="-251" y="547" as="sourcePoint" />
            <mxPoint x="-310" y="547" as="targetPoint" />
          </mxGeometry>
        </mxCell>
        <mxCell id="mPRCxrv7k-D8UaFmPZDw-8" value="No" style="endArrow=none;html=1;rounded=0;fontSize=12;startSize=8;endSize=8;curved=1;exitX=0;exitY=0.5;exitDx=0;exitDy=0;exitPerimeter=0;" edge="1" parent="1" source="mPRCxrv7k-D8UaFmPZDw-6">
          <mxGeometry x="-0.381" width="50" height="50" relative="1" as="geometry">
            <mxPoint x="-504" y="590" as="sourcePoint" />
            <mxPoint x="-657" y="537" as="targetPoint" />
            <mxPoint as="offset" />
          </mxGeometry>
        </mxCell>
        <mxCell id="mPRCxrv7k-D8UaFmPZDw-11" value="Yes" style="endArrow=none;html=1;rounded=0;fontSize=12;startSize=8;endSize=8;curved=1;exitX=0.5;exitY=1;exitDx=0;exitDy=0;exitPerimeter=0;" edge="1" parent="1" source="mPRCxrv7k-D8UaFmPZDw-6">
          <mxGeometry width="50" height="50" relative="1" as="geometry">
            <mxPoint x="-428" y="435" as="sourcePoint" />
            <mxPoint x="-523" y="625" as="targetPoint" />
            <Array as="points" />
          </mxGeometry>
        </mxCell>
        <mxCell id="mPRCxrv7k-D8UaFmPZDw-14" value="" style="endArrow=none;html=1;rounded=0;fontSize=12;startSize=8;endSize=8;curved=1;" edge="1" parent="1">
          <mxGeometry width="50" height="50" relative="1" as="geometry">
            <mxPoint x="-1174" y="35" as="sourcePoint" />
            <mxPoint x="-1174" y="625" as="targetPoint" />
            <Array as="points" />
          </mxGeometry>
        </mxCell>
        <mxCell id="mPRCxrv7k-D8UaFmPZDw-15" value="" style="endArrow=none;html=1;rounded=0;fontSize=12;startSize=8;endSize=8;curved=1;" edge="1" parent="1">
          <mxGeometry width="50" height="50" relative="1" as="geometry">
            <mxPoint x="-1174" y="625" as="sourcePoint" />
            <mxPoint x="-523" y="625" as="targetPoint" />
            <Array as="points" />
          </mxGeometry>
        </mxCell>
        <mxCell id="mPRCxrv7k-D8UaFmPZDw-18" value="" style="endArrow=none;html=1;rounded=0;fontSize=12;startSize=8;endSize=8;curved=1;" edge="1" parent="1">
          <mxGeometry width="50" height="50" relative="1" as="geometry">
            <mxPoint x="-1174" y="35" as="sourcePoint" />
            <mxPoint x="181" y="45" as="targetPoint" />
            <Array as="points" />
          </mxGeometry>
        </mxCell>
        <mxCell id="mPRCxrv7k-D8UaFmPZDw-26" value="" style="edgeStyle=none;curved=1;rounded=0;orthogonalLoop=1;jettySize=auto;html=1;fontSize=12;startSize=8;endSize=8;" edge="1" parent="1" source="mPRCxrv7k-D8UaFmPZDw-22" target="mPRCxrv7k-D8UaFmPZDw-23">
          <mxGeometry relative="1" as="geometry" />
        </mxCell>
        <mxCell id="mPRCxrv7k-D8UaFmPZDw-22" value="input option" style="shape=parallelogram;perimeter=parallelogramPerimeter;whiteSpace=wrap;html=1;fixedSize=1;" vertex="1" parent="1">
          <mxGeometry x="-35" y="364" width="120" height="60" as="geometry" />
        </mxCell>
        <mxCell id="mPRCxrv7k-D8UaFmPZDw-28" value="No" style="edgeStyle=none;curved=1;rounded=0;orthogonalLoop=1;jettySize=auto;html=1;fontSize=12;startSize=8;endSize=8;" edge="1" parent="1" source="mPRCxrv7k-D8UaFmPZDw-23" target="mPRCxrv7k-D8UaFmPZDw-24">
          <mxGeometry x="-0.6591" relative="1" as="geometry">
            <mxPoint as="offset" />
          </mxGeometry>
        </mxCell>
        <mxCell id="mPRCxrv7k-D8UaFmPZDw-31" value="Yes" style="edgeStyle=none;curved=1;rounded=0;orthogonalLoop=1;jettySize=auto;html=1;fontSize=12;startSize=8;endSize=8;" edge="1" parent="1" source="mPRCxrv7k-D8UaFmPZDw-23" target="mPRCxrv7k-D8UaFmPZDw-30">
          <mxGeometry relative="1" as="geometry" />
        </mxCell>
        <mxCell id="mPRCxrv7k-D8UaFmPZDw-23" value="option=&lt;br&gt;view" style="strokeWidth=2;html=1;shape=mxgraph.flowchart.decision;whiteSpace=wrap;" vertex="1" parent="1">
          <mxGeometry x="-25" y="487" width="100" height="100" as="geometry" />
        </mxCell>
        <mxCell id="mPRCxrv7k-D8UaFmPZDw-29" value="" style="edgeStyle=none;curved=1;rounded=0;orthogonalLoop=1;jettySize=auto;html=1;fontSize=12;startSize=8;endSize=8;" edge="1" parent="1" source="mPRCxrv7k-D8UaFmPZDw-24" target="mPRCxrv7k-D8UaFmPZDw-25">
          <mxGeometry relative="1" as="geometry" />
        </mxCell>
        <mxCell id="mPRCxrv7k-D8UaFmPZDw-35" value="No" style="edgeLabel;html=1;align=center;verticalAlign=middle;resizable=0;points=[];fontSize=12;" connectable="0" vertex="1" parent="mPRCxrv7k-D8UaFmPZDw-29">
          <mxGeometry x="-0.4636" relative="1" as="geometry">
            <mxPoint as="offset" />
          </mxGeometry>
        </mxCell>
        <mxCell id="mPRCxrv7k-D8UaFmPZDw-38" value="Yes" style="edgeStyle=none;curved=1;rounded=0;orthogonalLoop=1;jettySize=auto;html=1;fontSize=12;startSize=8;endSize=8;" edge="1" parent="1" source="mPRCxrv7k-D8UaFmPZDw-24" target="mPRCxrv7k-D8UaFmPZDw-37">
          <mxGeometry relative="1" as="geometry" />
        </mxCell>
        <mxCell id="mPRCxrv7k-D8UaFmPZDw-24" value="option=&lt;br&gt;remove" style="strokeWidth=2;html=1;shape=mxgraph.flowchart.decision;whiteSpace=wrap;" vertex="1" parent="1">
          <mxGeometry x="163" y="487" width="100" height="100" as="geometry" />
        </mxCell>
        <mxCell id="mPRCxrv7k-D8UaFmPZDw-33" value="" style="edgeStyle=none;curved=1;rounded=0;orthogonalLoop=1;jettySize=auto;html=1;fontSize=12;startSize=8;endSize=8;" edge="1" parent="1" source="mPRCxrv7k-D8UaFmPZDw-25" target="mPRCxrv7k-D8UaFmPZDw-32">
          <mxGeometry relative="1" as="geometry" />
        </mxCell>
        <mxCell id="mPRCxrv7k-D8UaFmPZDw-36" value="No" style="edgeLabel;html=1;align=center;verticalAlign=middle;resizable=0;points=[];fontSize=12;" connectable="0" vertex="1" parent="mPRCxrv7k-D8UaFmPZDw-33">
          <mxGeometry x="-0.6091" y="-2" relative="1" as="geometry">
            <mxPoint as="offset" />
          </mxGeometry>
        </mxCell>
        <mxCell id="mPRCxrv7k-D8UaFmPZDw-25" value="option=&lt;br&gt;add" style="strokeWidth=2;html=1;shape=mxgraph.flowchart.decision;whiteSpace=wrap;" vertex="1" parent="1">
          <mxGeometry x="351" y="487" width="100" height="100" as="geometry" />
        </mxCell>
        <mxCell id="mPRCxrv7k-D8UaFmPZDw-30" value="open csv, print all guest names and guest IDs" style="rounded=0;whiteSpace=wrap;html=1;" vertex="1" parent="1">
          <mxGeometry x="-35" y="631" width="120" height="60" as="geometry" />
        </mxCell>
        <mxCell id="mPRCxrv7k-D8UaFmPZDw-32" value="option=&lt;br&gt;back" style="strokeWidth=2;html=1;shape=mxgraph.flowchart.decision;whiteSpace=wrap;" vertex="1" parent="1">
          <mxGeometry x="539" y="487" width="100" height="100" as="geometry" />
        </mxCell>
        <mxCell id="mPRCxrv7k-D8UaFmPZDw-40" value="" style="edgeStyle=none;curved=1;rounded=0;orthogonalLoop=1;jettySize=auto;html=1;fontSize=12;startSize=8;endSize=8;" edge="1" parent="1" source="mPRCxrv7k-D8UaFmPZDw-37" target="mPRCxrv7k-D8UaFmPZDw-39">
          <mxGeometry relative="1" as="geometry" />
        </mxCell>
        <mxCell id="mPRCxrv7k-D8UaFmPZDw-37" value="open csv, store all guest info in variable &quot;guests&quot;" style="rounded=0;whiteSpace=wrap;html=1;" vertex="1" parent="1">
          <mxGeometry x="153" y="631" width="120" height="60" as="geometry" />
        </mxCell>
        <mxCell id="mPRCxrv7k-D8UaFmPZDw-42" value="" style="edgeStyle=none;curved=1;rounded=0;orthogonalLoop=1;jettySize=auto;html=1;fontSize=12;startSize=8;endSize=8;" edge="1" parent="1" source="mPRCxrv7k-D8UaFmPZDw-39" target="mPRCxrv7k-D8UaFmPZDw-41">
          <mxGeometry relative="1" as="geometry" />
        </mxCell>
        <mxCell id="mPRCxrv7k-D8UaFmPZDw-39" value="print name and guest ID from guests" style="rounded=0;whiteSpace=wrap;html=1;" vertex="1" parent="1">
          <mxGeometry x="153" y="722" width="120" height="60" as="geometry" />
        </mxCell>
        <mxCell id="mPRCxrv7k-D8UaFmPZDw-44" value="" style="edgeStyle=none;curved=1;rounded=0;orthogonalLoop=1;jettySize=auto;html=1;fontSize=12;startSize=8;endSize=8;" edge="1" parent="1" source="mPRCxrv7k-D8UaFmPZDw-41" target="mPRCxrv7k-D8UaFmPZDw-43">
          <mxGeometry relative="1" as="geometry" />
        </mxCell>
        <mxCell id="mPRCxrv7k-D8UaFmPZDw-41" value="input choice" style="shape=parallelogram;perimeter=parallelogramPerimeter;whiteSpace=wrap;html=1;fixedSize=1;" vertex="1" parent="1">
          <mxGeometry x="153" y="812" width="120" height="60" as="geometry" />
        </mxCell>
        <mxCell id="mPRCxrv7k-D8UaFmPZDw-49" value="Yes" style="edgeStyle=none;curved=1;rounded=0;orthogonalLoop=1;jettySize=auto;html=1;fontSize=12;startSize=8;endSize=8;" edge="1" parent="1" source="mPRCxrv7k-D8UaFmPZDw-43" target="mPRCxrv7k-D8UaFmPZDw-48">
          <mxGeometry relative="1" as="geometry" />
        </mxCell>
        <mxCell id="mPRCxrv7k-D8UaFmPZDw-43" value="is choice in guests?" style="strokeWidth=2;html=1;shape=mxgraph.flowchart.decision;whiteSpace=wrap;" vertex="1" parent="1">
          <mxGeometry x="163" y="902" width="100" height="100" as="geometry" />
        </mxCell>
        <mxCell id="mPRCxrv7k-D8UaFmPZDw-45" value="No" style="endArrow=classic;html=1;rounded=0;fontSize=12;startSize=8;endSize=8;entryX=0.5;entryY=0;entryDx=0;entryDy=0;exitX=0;exitY=0.5;exitDx=0;exitDy=0;exitPerimeter=0;entryPerimeter=0;" edge="1" parent="1" source="mPRCxrv7k-D8UaFmPZDw-43" target="mPRCxrv7k-D8UaFmPZDw-43">
          <mxGeometry x="-0.8422" width="50" height="50" relative="1" as="geometry">
            <mxPoint x="163" y="1050" as="sourcePoint" />
            <mxPoint x="213" y="902" as="targetPoint" />
            <Array as="points">
              <mxPoint x="100" y="952" />
              <mxPoint x="98" y="884" />
              <mxPoint x="213" y="884" />
            </Array>
            <mxPoint as="offset" />
          </mxGeometry>
        </mxCell>
        <mxCell id="mPRCxrv7k-D8UaFmPZDw-46" value="remove choice from guests and store new guests list in csv" style="rounded=0;whiteSpace=wrap;html=1;" vertex="1" parent="1">
          <mxGeometry x="153" y="1252" width="120" height="60" as="geometry" />
        </mxCell>
        <mxCell id="mPRCxrv7k-D8UaFmPZDw-51" value="" style="edgeStyle=none;curved=1;rounded=0;orthogonalLoop=1;jettySize=auto;html=1;fontSize=12;startSize=8;endSize=8;" edge="1" parent="1" source="mPRCxrv7k-D8UaFmPZDw-48" target="mPRCxrv7k-D8UaFmPZDw-50">
          <mxGeometry relative="1" as="geometry" />
        </mxCell>
        <mxCell id="mPRCxrv7k-D8UaFmPZDw-48" value="input confirm" style="shape=parallelogram;perimeter=parallelogramPerimeter;whiteSpace=wrap;html=1;fixedSize=1;" vertex="1" parent="1">
          <mxGeometry x="153" y="1032" width="120" height="60" as="geometry" />
        </mxCell>
        <mxCell id="mPRCxrv7k-D8UaFmPZDw-52" value="Yes" style="edgeStyle=none;curved=1;rounded=0;orthogonalLoop=1;jettySize=auto;html=1;fontSize=12;startSize=8;endSize=8;" edge="1" parent="1" source="mPRCxrv7k-D8UaFmPZDw-50" target="mPRCxrv7k-D8UaFmPZDw-46">
          <mxGeometry relative="1" as="geometry" />
        </mxCell>
        <mxCell id="mPRCxrv7k-D8UaFmPZDw-50" value="confirm=yes?" style="strokeWidth=2;html=1;shape=mxgraph.flowchart.decision;whiteSpace=wrap;" vertex="1" parent="1">
          <mxGeometry x="163" y="1122" width="100" height="100" as="geometry" />
        </mxCell>
        <mxCell id="mPRCxrv7k-D8UaFmPZDw-53" value="" style="endArrow=none;html=1;rounded=0;fontSize=12;startSize=8;endSize=8;entryX=0.5;entryY=1;entryDx=0;entryDy=0;" edge="1" parent="1" target="mPRCxrv7k-D8UaFmPZDw-46">
          <mxGeometry width="50" height="50" relative="1" as="geometry">
            <mxPoint x="25" y="335" as="sourcePoint" />
            <mxPoint x="15" y="963" as="targetPoint" />
            <Array as="points">
              <mxPoint x="-102" y="335" />
              <mxPoint x="-102" y="1368" />
              <mxPoint x="213" y="1372" />
            </Array>
          </mxGeometry>
        </mxCell>
        <mxCell id="mPRCxrv7k-D8UaFmPZDw-54" value="" style="endArrow=none;html=1;rounded=0;fontSize=12;startSize=8;endSize=8;entryX=0.5;entryY=1;entryDx=0;entryDy=0;" edge="1" parent="1" target="mPRCxrv7k-D8UaFmPZDw-30">
          <mxGeometry width="50" height="50" relative="1" as="geometry">
            <mxPoint x="-102" y="734" as="sourcePoint" />
            <mxPoint x="223" y="1322" as="targetPoint" />
            <Array as="points">
              <mxPoint x="25" y="734" />
            </Array>
          </mxGeometry>
        </mxCell>
        <mxCell id="mPRCxrv7k-D8UaFmPZDw-55" value="" style="endArrow=none;html=1;rounded=0;fontSize=12;startSize=8;endSize=8;curved=1;exitX=0;exitY=0.5;exitDx=0;exitDy=0;exitPerimeter=0;" edge="1" parent="1" source="mPRCxrv7k-D8UaFmPZDw-50">
          <mxGeometry width="50" height="50" relative="1" as="geometry">
            <mxPoint x="137" y="1065" as="sourcePoint" />
            <mxPoint x="-101" y="1172" as="targetPoint" />
          </mxGeometry>
        </mxCell>
        <mxCell id="mPRCxrv7k-D8UaFmPZDw-56" value="No" style="edgeLabel;html=1;align=center;verticalAlign=middle;resizable=0;points=[];fontSize=12;" connectable="0" vertex="1" parent="mPRCxrv7k-D8UaFmPZDw-55">
          <mxGeometry x="-0.7863" y="2" relative="1" as="geometry">
            <mxPoint x="1" y="-2" as="offset" />
          </mxGeometry>
        </mxCell>
        <mxCell id="mPRCxrv7k-D8UaFmPZDw-57" value="Yes" style="edgeStyle=none;curved=1;rounded=0;orthogonalLoop=1;jettySize=auto;html=1;fontSize=12;startSize=8;endSize=8;" edge="1" parent="1">
          <mxGeometry relative="1" as="geometry">
            <mxPoint x="401" y="587" as="sourcePoint" />
            <mxPoint x="401" y="631" as="targetPoint" />
          </mxGeometry>
        </mxCell>
        <mxCell id="mPRCxrv7k-D8UaFmPZDw-59" value="input guest info" style="shape=parallelogram;perimeter=parallelogramPerimeter;whiteSpace=wrap;html=1;fixedSize=1;" vertex="1" parent="1">
          <mxGeometry x="341" y="631" width="120" height="60" as="geometry" />
        </mxCell>
        <mxCell id="mPRCxrv7k-D8UaFmPZDw-60" value="" style="edgeStyle=none;curved=1;rounded=0;orthogonalLoop=1;jettySize=auto;html=1;fontSize=12;startSize=8;endSize=8;" edge="1" parent="1" target="mPRCxrv7k-D8UaFmPZDw-61">
          <mxGeometry relative="1" as="geometry">
            <mxPoint x="401" y="691" as="sourcePoint" />
          </mxGeometry>
        </mxCell>
        <mxCell id="mPRCxrv7k-D8UaFmPZDw-61" value="store guest info in CSV" style="rounded=0;whiteSpace=wrap;html=1;" vertex="1" parent="1">
          <mxGeometry x="341" y="722" width="120" height="60" as="geometry" />
        </mxCell>
        <mxCell id="mPRCxrv7k-D8UaFmPZDw-63" value="" style="endArrow=none;html=1;rounded=0;fontSize=12;startSize=8;endSize=8;entryX=0.5;entryY=1;entryDx=0;entryDy=0;" edge="1" parent="1" target="mPRCxrv7k-D8UaFmPZDw-61">
          <mxGeometry width="50" height="50" relative="1" as="geometry">
            <mxPoint x="212" y="1372" as="sourcePoint" />
            <mxPoint x="35" y="701" as="targetPoint" />
            <Array as="points">
              <mxPoint x="404" y="1372" />
            </Array>
          </mxGeometry>
        </mxCell>
        <mxCell id="mPRCxrv7k-D8UaFmPZDw-64" value="" style="endArrow=none;html=1;rounded=0;fontSize=12;startSize=8;endSize=8;entryX=0.5;entryY=1;entryDx=0;entryDy=0;entryPerimeter=0;" edge="1" parent="1" target="mPRCxrv7k-D8UaFmPZDw-32">
          <mxGeometry width="50" height="50" relative="1" as="geometry">
            <mxPoint x="403" y="1372" as="sourcePoint" />
            <mxPoint x="592" y="782" as="targetPoint" />
            <Array as="points">
              <mxPoint x="595" y="1372" />
            </Array>
          </mxGeometry>
        </mxCell>
        <mxCell id="mPRCxrv7k-D8UaFmPZDw-65" value="No" style="edgeLabel;html=1;align=center;verticalAlign=middle;resizable=0;points=[];fontSize=12;" connectable="0" vertex="1" parent="mPRCxrv7k-D8UaFmPZDw-64">
          <mxGeometry x="0.9575" relative="1" as="geometry">
            <mxPoint as="offset" />
          </mxGeometry>
        </mxCell>
        <mxCell id="mPRCxrv7k-D8UaFmPZDw-66" value="Yes" style="endArrow=classic;html=1;rounded=0;fontSize=12;startSize=8;endSize=8;exitX=1;exitY=0.5;exitDx=0;exitDy=0;exitPerimeter=0;entryX=0.5;entryY=0;entryDx=0;entryDy=0;" edge="1" parent="1" source="mPRCxrv7k-D8UaFmPZDw-32" target="lurDzq3rtO2G6Uc5bRRA-14">
          <mxGeometry x="-0.9708" y="-2" width="50" height="50" relative="1" as="geometry">
            <mxPoint x="739" y="744" as="sourcePoint" />
            <mxPoint x="601" y="279" as="targetPoint" />
            <Array as="points">
              <mxPoint x="670" y="537" />
              <mxPoint x="663" y="49" />
              <mxPoint x="181" y="45" />
            </Array>
            <mxPoint as="offset" />
          </mxGeometry>
        </mxCell>
        <mxCell id="mPRCxrv7k-D8UaFmPZDw-72" value="" style="edgeStyle=none;curved=1;rounded=0;orthogonalLoop=1;jettySize=auto;html=1;fontSize=12;startSize=8;endSize=8;" edge="1" parent="1" source="mPRCxrv7k-D8UaFmPZDw-67" target="mPRCxrv7k-D8UaFmPZDw-71">
          <mxGeometry relative="1" as="geometry" />
        </mxCell>
        <mxCell id="mPRCxrv7k-D8UaFmPZDw-73" value="yes" style="edgeLabel;html=1;align=center;verticalAlign=middle;resizable=0;points=[];fontSize=12;" connectable="0" vertex="1" parent="mPRCxrv7k-D8UaFmPZDw-72">
          <mxGeometry x="-0.3243" y="1" relative="1" as="geometry">
            <mxPoint as="offset" />
          </mxGeometry>
        </mxCell>
        <mxCell id="mPRCxrv7k-D8UaFmPZDw-67" value="option=payment?" style="strokeWidth=2;html=1;shape=mxgraph.flowchart.decision;whiteSpace=wrap;" vertex="1" parent="1">
          <mxGeometry x="-806" y="201" width="100" height="100" as="geometry" />
        </mxCell>
        <mxCell id="mPRCxrv7k-D8UaFmPZDw-69" value="no" style="endArrow=classic;html=1;rounded=0;fontSize=12;startSize=8;endSize=8;exitX=0;exitY=0.5;exitDx=0;exitDy=0;exitPerimeter=0;entryX=1;entryY=0.5;entryDx=0;entryDy=0;entryPerimeter=0;" edge="1" parent="1" source="GNyw5JDD-zAtvYl24aWg-5" target="mPRCxrv7k-D8UaFmPZDw-67">
          <mxGeometry x="-0.6029" width="50" height="50" relative="1" as="geometry">
            <mxPoint x="-317" y="251" as="sourcePoint" />
            <mxPoint x="-453" y="251" as="targetPoint" />
            <mxPoint as="offset" />
          </mxGeometry>
        </mxCell>
        <mxCell id="mPRCxrv7k-D8UaFmPZDw-70" value="" style="endArrow=none;html=1;rounded=0;fontSize=12;startSize=8;endSize=8;curved=1;exitX=0.5;exitY=0;exitDx=0;exitDy=0;exitPerimeter=0;" edge="1" parent="1" source="mPRCxrv7k-D8UaFmPZDw-67">
          <mxGeometry width="50" height="50" relative="1" as="geometry">
            <mxPoint x="-678" y="106" as="sourcePoint" />
            <mxPoint x="-756" y="39" as="targetPoint" />
          </mxGeometry>
        </mxCell>
        <mxCell id="mPRCxrv7k-D8UaFmPZDw-74" value="No" style="edgeLabel;html=1;align=center;verticalAlign=middle;resizable=0;points=[];fontSize=12;" connectable="0" vertex="1" parent="mPRCxrv7k-D8UaFmPZDw-70">
          <mxGeometry x="-0.8134" relative="1" as="geometry">
            <mxPoint as="offset" />
          </mxGeometry>
        </mxCell>
        <mxCell id="mPRCxrv7k-D8UaFmPZDw-77" value="" style="edgeStyle=none;curved=1;rounded=0;orthogonalLoop=1;jettySize=auto;html=1;fontSize=12;startSize=8;endSize=8;" edge="1" parent="1" source="mPRCxrv7k-D8UaFmPZDw-71" target="mPRCxrv7k-D8UaFmPZDw-75">
          <mxGeometry relative="1" as="geometry" />
        </mxCell>
        <mxCell id="mPRCxrv7k-D8UaFmPZDw-71" value="input option" style="shape=parallelogram;perimeter=parallelogramPerimeter;whiteSpace=wrap;html=1;fixedSize=1;" vertex="1" parent="1">
          <mxGeometry x="-816" y="364" width="120" height="60" as="geometry" />
        </mxCell>
        <mxCell id="mPRCxrv7k-D8UaFmPZDw-78" value="No" style="edgeStyle=none;curved=1;rounded=0;orthogonalLoop=1;jettySize=auto;html=1;fontSize=12;startSize=8;endSize=8;" edge="1" parent="1" source="mPRCxrv7k-D8UaFmPZDw-75" target="mPRCxrv7k-D8UaFmPZDw-76">
          <mxGeometry x="-0.2857" relative="1" as="geometry">
            <mxPoint as="offset" />
          </mxGeometry>
        </mxCell>
        <mxCell id="mPRCxrv7k-D8UaFmPZDw-80" value="" style="edgeStyle=none;curved=1;rounded=0;orthogonalLoop=1;jettySize=auto;html=1;fontSize=12;startSize=8;endSize=8;entryX=0.5;entryY=0;entryDx=0;entryDy=0;" edge="1" parent="1" source="mPRCxrv7k-D8UaFmPZDw-75" target="E0xq23VAxIwiFsbpbbOm-7">
          <mxGeometry relative="1" as="geometry">
            <mxPoint x="-756" y="650" as="targetPoint" />
          </mxGeometry>
        </mxCell>
        <mxCell id="mPRCxrv7k-D8UaFmPZDw-94" value="Yes" style="edgeLabel;html=1;align=center;verticalAlign=middle;resizable=0;points=[];fontSize=12;" connectable="0" vertex="1" parent="mPRCxrv7k-D8UaFmPZDw-80">
          <mxGeometry x="-0.5767" y="1" relative="1" as="geometry">
            <mxPoint as="offset" />
          </mxGeometry>
        </mxCell>
        <mxCell id="mPRCxrv7k-D8UaFmPZDw-75" value="option=&lt;br&gt;add" style="strokeWidth=2;html=1;shape=mxgraph.flowchart.decision;whiteSpace=wrap;" vertex="1" parent="1">
          <mxGeometry x="-806" y="487" width="100" height="100" as="geometry" />
        </mxCell>
        <mxCell id="mPRCxrv7k-D8UaFmPZDw-82" value="" style="edgeStyle=none;curved=1;rounded=0;orthogonalLoop=1;jettySize=auto;html=1;fontSize=12;startSize=8;endSize=8;entryX=0.5;entryY=0;entryDx=0;entryDy=0;" edge="1" parent="1" source="mPRCxrv7k-D8UaFmPZDw-76" target="E0xq23VAxIwiFsbpbbOm-2">
          <mxGeometry relative="1" as="geometry">
            <mxPoint x="-926" y="650" as="targetPoint" />
          </mxGeometry>
        </mxCell>
        <mxCell id="mPRCxrv7k-D8UaFmPZDw-93" value="Yes" style="edgeLabel;html=1;align=center;verticalAlign=middle;resizable=0;points=[];fontSize=12;" connectable="0" vertex="1" parent="mPRCxrv7k-D8UaFmPZDw-82">
          <mxGeometry x="-0.5767" y="2" relative="1" as="geometry">
            <mxPoint as="offset" />
          </mxGeometry>
        </mxCell>
        <mxCell id="mPRCxrv7k-D8UaFmPZDw-76" value="option=&lt;br&gt;pay" style="strokeWidth=2;html=1;shape=mxgraph.flowchart.decision;whiteSpace=wrap;" vertex="1" parent="1">
          <mxGeometry x="-976" y="487" width="100" height="100" as="geometry" />
        </mxCell>
        <mxCell id="mPRCxrv7k-D8UaFmPZDw-85" value="option=&lt;br&gt;back" style="strokeWidth=2;html=1;shape=mxgraph.flowchart.decision;whiteSpace=wrap;" vertex="1" parent="1">
          <mxGeometry x="-1146" y="487" width="100" height="100" as="geometry" />
        </mxCell>
        <mxCell id="mPRCxrv7k-D8UaFmPZDw-88" value="No" style="edgeStyle=none;curved=1;rounded=0;orthogonalLoop=1;jettySize=auto;html=1;fontSize=12;startSize=8;endSize=8;exitX=0;exitY=0.5;exitDx=0;exitDy=0;exitPerimeter=0;entryX=1;entryY=0.5;entryDx=0;entryDy=0;entryPerimeter=0;" edge="1" parent="1" source="mPRCxrv7k-D8UaFmPZDw-76" target="mPRCxrv7k-D8UaFmPZDw-85">
          <mxGeometry x="-0.2857" relative="1" as="geometry">
            <mxPoint x="-977" y="537" as="sourcePoint" />
            <mxPoint x="-1047" y="537" as="targetPoint" />
            <mxPoint as="offset" />
          </mxGeometry>
        </mxCell>
        <mxCell id="mPRCxrv7k-D8UaFmPZDw-89" value="" style="endArrow=none;html=1;rounded=0;fontSize=12;startSize=8;endSize=8;curved=1;exitX=0.5;exitY=1;exitDx=0;exitDy=0;exitPerimeter=0;" edge="1" parent="1" source="mPRCxrv7k-D8UaFmPZDw-85">
          <mxGeometry width="50" height="50" relative="1" as="geometry">
            <mxPoint x="-991" y="499" as="sourcePoint" />
            <mxPoint x="-1096" y="624" as="targetPoint" />
          </mxGeometry>
        </mxCell>
        <mxCell id="mPRCxrv7k-D8UaFmPZDw-91" value="Yes" style="edgeLabel;html=1;align=center;verticalAlign=middle;resizable=0;points=[];fontSize=12;" connectable="0" vertex="1" parent="mPRCxrv7k-D8UaFmPZDw-89">
          <mxGeometry x="-0.3822" y="1" relative="1" as="geometry">
            <mxPoint as="offset" />
          </mxGeometry>
        </mxCell>
        <mxCell id="mPRCxrv7k-D8UaFmPZDw-90" value="" style="endArrow=none;html=1;rounded=0;fontSize=12;startSize=8;endSize=8;exitX=0.5;exitY=0;exitDx=0;exitDy=0;exitPerimeter=0;" edge="1" parent="1" source="mPRCxrv7k-D8UaFmPZDw-85">
          <mxGeometry width="50" height="50" relative="1" as="geometry">
            <mxPoint x="-1375" y="595" as="sourcePoint" />
            <mxPoint x="-756" y="337" as="targetPoint" />
            <Array as="points">
              <mxPoint x="-1096" y="337" />
            </Array>
          </mxGeometry>
        </mxCell>
        <mxCell id="mPRCxrv7k-D8UaFmPZDw-92" value="No" style="edgeLabel;html=1;align=center;verticalAlign=middle;resizable=0;points=[];fontSize=12;" connectable="0" vertex="1" parent="mPRCxrv7k-D8UaFmPZDw-90">
          <mxGeometry x="-0.93" y="1" relative="1" as="geometry">
            <mxPoint as="offset" />
          </mxGeometry>
        </mxCell>
        <mxCell id="E0xq23VAxIwiFsbpbbOm-4" value="" style="edgeStyle=none;curved=1;rounded=0;orthogonalLoop=1;jettySize=auto;html=1;fontSize=12;startSize=8;endSize=8;" edge="1" parent="1" source="E0xq23VAxIwiFsbpbbOm-2" target="E0xq23VAxIwiFsbpbbOm-3">
          <mxGeometry relative="1" as="geometry" />
        </mxCell>
        <mxCell id="E0xq23VAxIwiFsbpbbOm-2" value="Input payment&lt;div&gt;details&lt;/div&gt;" style="shape=parallelogram;perimeter=parallelogramPerimeter;whiteSpace=wrap;html=1;fixedSize=1;" vertex="1" parent="1">
          <mxGeometry x="-986" y="649" width="120" height="60" as="geometry" />
        </mxCell>
        <mxCell id="E0xq23VAxIwiFsbpbbOm-3" value="store payment info in csv" style="rounded=0;whiteSpace=wrap;html=1;" vertex="1" parent="1">
          <mxGeometry x="-986" y="748" width="120" height="60" as="geometry" />
        </mxCell>
        <mxCell id="E0xq23VAxIwiFsbpbbOm-5" value="" style="endArrow=none;html=1;rounded=0;fontSize=12;startSize=8;endSize=8;entryX=0.5;entryY=1;entryDx=0;entryDy=0;" edge="1" parent="1" target="E0xq23VAxIwiFsbpbbOm-3">
          <mxGeometry width="50" height="50" relative="1" as="geometry">
            <mxPoint x="-1174" y="624" as="sourcePoint" />
            <mxPoint x="-855" y="1172" as="targetPoint" />
            <Array as="points">
              <mxPoint x="-1174" y="857" />
              <mxPoint x="-926" y="857" />
            </Array>
          </mxGeometry>
        </mxCell>
        <mxCell id="E0xq23VAxIwiFsbpbbOm-9" value="" style="edgeStyle=none;curved=1;rounded=0;orthogonalLoop=1;jettySize=auto;html=1;fontSize=12;startSize=8;endSize=8;" edge="1" parent="1" source="E0xq23VAxIwiFsbpbbOm-7" target="E0xq23VAxIwiFsbpbbOm-8">
          <mxGeometry relative="1" as="geometry" />
        </mxCell>
        <mxCell id="E0xq23VAxIwiFsbpbbOm-7" value="input purchase info" style="shape=parallelogram;perimeter=parallelogramPerimeter;whiteSpace=wrap;html=1;fixedSize=1;" vertex="1" parent="1">
          <mxGeometry x="-816" y="649" width="120" height="60" as="geometry" />
        </mxCell>
        <mxCell id="E0xq23VAxIwiFsbpbbOm-8" value="store purchase info in csv" style="rounded=0;whiteSpace=wrap;html=1;" vertex="1" parent="1">
          <mxGeometry x="-816" y="748" width="120" height="60" as="geometry" />
        </mxCell>
        <mxCell id="E0xq23VAxIwiFsbpbbOm-10" value="" style="endArrow=none;html=1;rounded=0;fontSize=12;startSize=8;endSize=8;entryX=0.5;entryY=1;entryDx=0;entryDy=0;" edge="1" parent="1" target="E0xq23VAxIwiFsbpbbOm-8">
          <mxGeometry width="50" height="50" relative="1" as="geometry">
            <mxPoint x="-926" y="857" as="sourcePoint" />
            <mxPoint x="-916" y="818" as="targetPoint" />
            <Array as="points">
              <mxPoint x="-754" y="856" />
            </Array>
          </mxGeometry>
        </mxCell>
      </root>
    </mxGraphModel>
  </diagram>
</mxfile>
